# xmcd
#
# Track frame offsets: 
#        150
#        19350
#        43338
#        58913
#        85155
#        110418
#        123706
#        144830
#        162596
#        184673
#        200933
#
# Disc length: 2926 seconds
#
# Revision: 0
# Processed by: cddbd v1.5.2PL0 Copyright (c) Steve Scherf et al.
# Submitted via: ExactAudioCopy v0.95b3
#
DISCID=a80b6c0b
DTITLE=Back Door Slam - Roll Away
DYEAR=2007
DGENRE=Blues
TTITLE0=Come Home
TTITLE1=Heavy on my Mind
TTITLE2=Outside Woman Blues
TTITLE3=Gotta Leave
TTITLE4=Stay
TTITLE5=Too Late
TTITLE6=Takes a Real Man
TTITLE7=It'll All Come Around
TTITLE8=Too Good For Me
TTITLE9=Roll Away
TTITLE10=Real Man
EXTD=
EXTT0=
EXTT1=
EXTT2=
EXTT3=
EXTT4=
EXTT5=
EXTT6=
EXTT7=
EXTT8=
EXTT9=
EXTT10=
PLAYORDER=
